<?xml version="1.0" standalone="no"?>
<!DOCTYPE svg PUBLIC "-//W3C//DTD SVG 20010904//EN"
 "http://www.w3.org/TR/2001/REC-SVG-20010904/DTD/svg10.dtd">
<svg version="1.0" xmlns="http://www.w3.org/2000/svg"
 width="280.000000pt" height="280.000000pt" viewBox="0 0 280.000000 280.000000"
 preserveAspectRatio="xMidYMid meet">
<metadata>
Created by potrace 1.12, written by Peter Selinger 2001-2015
</metadata>
<g transform="translate(0.000000,280.000000) scale(0.100000,-0.100000)"
fill="#000000" stroke="none">
<path d="M70 2480 l0 -250 250 0 250 0 0 250 0 250 -250 0 -250 0 0 -250z
m430 0 l0 -180 -180 0 -180 0 0 180 0 180 180 0 180 0 0 -180z"/>
<path d="M210 2480 l0 -110 110 0 110 0 0 110 0 110 -110 0 -110 0 0 -110z"/>
<path d="M640 2660 l0 -70 70 0 70 0 0 70 0 70 -70 0 -70 0 0 -70z"/>
<path d="M1000 2625 l0 -105 35 0 35 0 0 -75 0 -75 -35 0 c-33 0 -35 -2 -35
-35 0 -33 -2 -35 -35 -35 -33 0 -35 -2 -35 -35 0 -33 -2 -35 -35 -35 -33 0
-35 2 -35 35 0 34 -1 35 -40 35 -39 0 -40 1 -40 35 0 34 1 35 40 35 l40 0 0
40 c0 39 1 40 35 40 33 0 35 2 35 35 0 33 -2 35 -35 35 -33 0 -35 -2 -35 -35
l0 -35 -75 0 -75 0 0 35 c0 33 -2 35 -35 35 l-35 0 0 -145 0 -145 35 0 c33 0
35 2 35 35 0 33 2 35 35 35 l35 0 0 -70 0 -70 40 0 c39 0 40 -1 40 -35 0 -34
-1 -35 -40 -35 l-40 0 0 -75 0 -75 -35 0 c-34 0 -35 1 -35 40 0 39 -1 40 -35
40 -34 0 -35 -1 -35 -40 0 -39 -1 -40 -35 -40 -34 0 -35 1 -35 40 l0 40 -110
0 -110 0 0 -40 c0 -39 -1 -40 -35 -40 l-35 0 0 75 0 75 35 0 c33 0 35 2 35 35
0 33 -2 35 -35 35 -33 0 -35 -2 -35 -35 0 -33 -2 -35 -35 -35 -33 0 -35 -2
-35 -35 l0 -35 -70 0 -70 0 0 -220 0 -220 35 0 35 0 0 -105 0 -105 -35 0 c-33
0 -35 -2 -35 -35 0 -33 2 -35 35 -35 l35 0 0 -75 0 -75 -35 0 -35 0 0 -105 0
-105 35 0 35 0 0 105 0 105 35 0 35 0 0 75 0 75 35 0 c33 0 35 -2 35 -35 l0
-35 75 0 75 0 0 -75 0 -75 -40 0 c-39 0 -40 1 -40 35 0 33 -2 35 -35 35 l-35
0 0 -105 0 -105 -35 0 c-33 0 -35 -2 -35 -35 l0 -35 70 0 70 0 0 -75 0 -75
-35 0 c-33 0 -35 2 -35 35 l0 35 -70 0 -70 0 0 40 c0 39 -1 40 -35 40 -34 0
-35 -1 -35 -40 0 -39 1 -40 35 -40 33 0 35 -2 35 -35 0 -33 -2 -35 -35 -35
-33 0 -35 -2 -35 -35 l0 -35 180 0 180 0 0 35 c0 33 2 35 35 35 33 0 35 -2 35
-35 0 -33 2 -35 35 -35 33 0 35 2 35 35 l0 35 105 0 105 0 0 75 0 75 -70 0
-70 0 0 35 c0 33 2 35 35 35 33 0 35 2 35 35 0 33 -2 35 -35 35 l-35 0 0 70 0
70 -70 0 -70 0 0 40 0 40 70 0 70 0 0 35 0 35 70 0 70 0 0 35 c0 34 1 35 40
35 l40 0 0 -70 0 -70 35 0 35 0 0 -75 0 -75 -35 0 -35 0 0 -105 0 -105 35 0
35 0 0 -75 0 -75 -35 0 c-33 0 -35 -2 -35 -35 0 -33 2 -35 35 -35 33 0 35 -2
35 -35 0 -33 2 -35 35 -35 33 0 35 -2 35 -35 l0 -35 -110 0 -110 0 0 70 0 70
-70 0 -70 0 0 -35 c0 -33 2 -35 35 -35 33 0 35 -2 35 -35 0 -33 2 -35 35 -35
33 0 35 -2 35 -35 0 -34 1 -35 40 -35 l40 0 0 -75 0 -75 -40 0 c-39 0 -40 -1
-40 -35 0 -33 -2 -35 -35 -35 l-35 0 0 -70 0 -70 180 0 180 0 0 35 c0 33 2 35
35 35 33 0 35 -2 35 -35 0 -34 1 -35 40 -35 39 0 40 1 40 35 0 33 2 35 35 35
33 0 35 -2 35 -35 0 -33 2 -35 35 -35 33 0 35 2 35 35 0 33 2 35 35 35 33 0
35 -2 35 -35 l0 -35 70 0 70 0 0 35 0 35 -70 0 -70 0 0 35 0 35 110 0 110 0 0
-70 0 -70 35 0 35 0 0 105 0 105 35 0 35 0 0 -105 0 -105 35 0 c33 0 35 2 35
35 0 33 2 35 35 35 l35 0 0 145 0 145 40 0 c39 0 40 1 40 35 0 33 2 35 35 35
l35 0 0 -75 0 -75 -35 0 -35 0 0 -105 0 -105 35 0 c33 0 35 -2 35 -35 l0 -35
140 0 140 0 0 35 0 35 75 0 75 0 0 35 c0 33 2 35 35 35 33 0 35 2 35 35 0 33
2 35 35 35 33 0 35 -2 35 -35 0 -33 2 -35 35 -35 l35 0 0 70 0 70 -35 0 c-34
0 -35 1 -35 40 0 39 -1 40 -35 40 -33 0 -35 2 -35 35 l0 35 70 0 70 0 0 70 0
70 -35 0 c-33 0 -35 2 -35 35 0 33 2 35 35 35 l35 0 0 145 0 145 -35 0 -35 0
0 -145 0 -145 -145 0 -145 0 0 35 0 35 75 0 75 0 0 40 0 40 -75 0 -75 0 0 35
c0 34 1 35 40 35 39 0 40 1 40 35 0 33 2 35 35 35 33 0 35 2 35 35 l0 35 105
0 105 0 0 75 0 75 -35 0 c-33 0 -35 2 -35 35 0 33 2 35 35 35 l35 0 0 105 0
105 -35 0 c-33 0 -35 -2 -35 -35 0 -33 -2 -35 -35 -35 l-35 0 0 70 0 70 35 0
c34 0 35 1 35 40 0 39 1 40 35 40 l35 0 0 250 0 250 -70 0 -70 0 0 -35 c0 -33
-2 -35 -35 -35 -33 0 -35 2 -35 35 l0 35 -110 0 -110 0 0 -35 0 -35 75 0 75 0
0 -35 0 -35 105 0 105 0 0 -110 0 -110 -35 0 c-33 0 -35 -2 -35 -35 0 -33 -2
-35 -35 -35 -33 0 -35 2 -35 35 0 33 -2 35 -35 35 l-35 0 0 70 0 70 -40 0 -40
0 0 40 0 40 -70 0 -70 0 0 35 0 35 -70 0 -70 0 0 35 c0 33 -2 35 -35 35 l-35
0 0 70 0 70 35 0 c33 0 35 -2 35 -35 0 -33 2 -35 35 -35 l35 0 0 180 0 180
-35 0 -35 0 0 70 0 70 -75 0 -75 0 0 -35 0 -35 -105 0 -105 0 0 -35 c0 -33 -2
-35 -35 -35 -33 0 -35 -2 -35 -35 0 -34 -1 -35 -40 -35 -39 0 -40 1 -40 35 0
33 -2 35 -35 35 -33 0 -35 -2 -35 -35 0 -33 2 -35 35 -35 33 0 35 -2 35 -35
l0 -35 75 0 75 0 0 -40 0 -40 -180 0 -180 0 0 40 0 40 -70 0 -70 0 0 -40 0
-40 -40 0 -40 0 0 145 0 145 -35 0 c-33 0 -35 2 -35 35 0 33 -2 35 -35 35
l-35 0 0 -105z m1010 -35 l0 -70 -75 0 -75 0 0 -35 0 -35 -70 0 -70 0 0 70 0
70 105 0 105 0 0 35 c0 34 1 35 40 35 l40 0 0 -70z m0 -215 l0 -75 -40 0 -40
0 0 -105 0 -105 -35 0 -35 0 0 105 0 105 -35 0 c-33 0 -35 -2 -35 -35 0 -33
-2 -35 -35 -35 -33 0 -35 -2 -35 -35 0 -33 2 -35 35 -35 l35 0 0 -70 0 -70
110 0 110 0 0 35 c0 33 2 35 35 35 l35 0 0 -75 0 -75 35 0 c34 0 35 1 35 40 0
39 1 40 35 40 34 0 35 -1 35 -40 l0 -40 70 0 70 0 0 -70 0 -70 40 0 c39 0 40
-1 40 -35 0 -33 2 -35 35 -35 33 0 35 -2 35 -35 0 -33 2 -35 35 -35 33 0 35 2
35 35 0 33 2 35 35 35 33 0 35 -2 35 -35 0 -33 -2 -35 -35 -35 -34 0 -35 -1
-35 -40 l0 -40 -70 0 -70 0 0 -35 c0 -34 -1 -35 -40 -35 -39 0 -40 -1 -40 -35
0 -34 1 -35 40 -35 39 0 40 -1 40 -35 0 -33 2 -35 35 -35 33 0 35 -2 35 -35 0
-33 2 -35 35 -35 33 0 35 2 35 35 0 33 2 35 35 35 33 0 35 -2 35 -35 0 -33 -2
-35 -35 -35 -33 0 -35 -2 -35 -35 0 -33 -2 -35 -35 -35 -34 0 -35 -1 -35 -40
l0 -40 -110 0 -110 0 0 -35 c0 -33 2 -35 35 -35 33 0 35 -2 35 -35 l0 -35
-105 0 -105 0 0 -35 0 -35 70 0 70 0 0 -35 c0 -33 2 -35 35 -35 34 0 35 -1 35
-40 l0 -40 -70 0 -70 0 0 40 c0 39 -1 40 -35 40 -34 0 -35 -1 -35 -40 0 -39
-1 -40 -35 -40 l-35 0 0 -105 0 -105 -35 0 c-33 0 -35 -2 -35 -35 0 -34 -1
-35 -40 -35 -39 0 -40 -1 -40 -35 0 -33 -2 -35 -35 -35 l-35 0 0 70 0 70 -35
0 -35 0 0 -70 0 -70 -35 0 -35 0 0 -75 0 -75 -35 0 c-33 0 -35 2 -35 35 0 34
-1 35 -40 35 l-40 0 0 40 0 40 -70 0 -70 0 0 -40 c0 -39 1 -40 35 -40 33 0 35
-2 35 -35 0 -33 -2 -35 -35 -35 -33 0 -35 -2 -35 -35 l0 -35 -70 0 -70 0 0 35
c0 33 -2 35 -35 35 l-35 0 0 -70 0 -70 -40 0 c-39 0 -40 1 -40 35 0 33 -2 35
-35 35 -33 0 -35 -2 -35 -35 0 -33 -2 -35 -35 -35 -33 0 -35 2 -35 35 0 33 -2
35 -35 35 -33 0 -35 -2 -35 -35 0 -33 -2 -35 -35 -35 l-35 0 0 70 0 70 70 0
70 0 0 -35 c0 -33 2 -35 35 -35 l35 0 0 110 0 110 -35 0 c-33 0 -35 2 -35 35
0 33 2 35 35 35 l35 0 0 70 0 70 -35 0 -35 0 0 70 0 70 35 0 c33 0 35 -2 35
-35 l0 -35 110 0 110 0 0 -35 c0 -33 2 -35 35 -35 l35 0 0 -70 0 -70 70 0 70
0 0 35 c0 33 -2 35 -35 35 l-35 0 0 70 0 70 -35 0 c-33 0 -35 2 -35 35 l0 35
-70 0 -70 0 0 40 0 40 -40 0 c-39 0 -40 1 -40 35 l0 35 -105 0 -105 0 0 70 0
70 35 0 35 0 0 75 0 75 35 0 c33 0 35 2 35 35 l0 35 75 0 75 0 0 35 0 35 -75
0 -75 0 0 35 0 35 110 0 110 0 0 70 0 70 35 0 c34 0 35 1 35 40 0 39 1 40 35
40 34 0 35 -1 35 -40 l0 -40 70 0 70 0 0 -35 0 -35 -105 0 -105 0 0 -35 c0
-33 2 -35 35 -35 33 0 35 -2 35 -35 0 -33 2 -35 35 -35 33 0 35 -2 35 -35 0
-33 2 -35 35 -35 l35 0 0 -110 0 -110 40 0 40 0 0 75 0 75 35 0 c33 0 35 2 35
35 0 33 -2 35 -35 35 -33 0 -35 2 -35 35 0 34 -1 35 -40 35 -39 0 -40 1 -40
35 0 34 1 35 40 35 l40 0 0 70 0 70 35 0 35 0 0 75 0 75 -110 0 -110 0 0 35
c0 33 -2 35 -35 35 -33 0 -35 -2 -35 -35 0 -33 -2 -35 -35 -35 -33 0 -35 2
-35 35 0 33 -2 35 -35 35 -33 0 -35 2 -35 35 0 33 2 35 35 35 33 0 35 2 35 35
0 33 2 35 35 35 34 0 35 1 35 40 l0 40 -70 0 -70 0 0 -40 c0 -39 -1 -40 -35
-40 -33 0 -35 -2 -35 -35 0 -34 -1 -35 -40 -35 -39 0 -40 -1 -40 -35 0 -34 1
-35 40 -35 39 0 40 -1 40 -35 0 -34 -1 -35 -40 -35 -39 0 -40 -1 -40 -35 0
-34 1 -35 40 -35 l40 0 0 -40 0 -40 -40 0 -40 0 0 40 c0 39 -1 40 -35 40 l-35
0 0 -75 0 -75 -70 0 -70 0 0 -35 c0 -33 2 -35 35 -35 l35 0 0 -70 0 -70 -35 0
-35 0 0 70 0 70 -110 0 -110 0 0 35 0 35 -70 0 -70 0 0 -35 c0 -33 2 -35 35
-35 33 0 35 -2 35 -35 0 -33 -2 -35 -35 -35 -33 0 -35 -2 -35 -35 0 -33 -2
-35 -35 -35 -33 0 -35 -2 -35 -35 0 -33 -2 -35 -35 -35 -33 0 -35 2 -35 35 0
34 -1 35 -40 35 -39 0 -40 1 -40 35 0 33 -2 35 -35 35 -33 0 -35 2 -35 35 0
33 -2 35 -35 35 l-35 0 0 70 0 70 -35 0 -35 0 0 110 0 110 35 0 c33 0 35 2 35
35 l0 35 70 0 70 0 0 35 c0 34 1 35 40 35 39 0 40 -1 40 -35 0 -33 2 -35 35
-35 33 0 35 2 35 35 0 33 2 35 35 35 33 0 35 -2 35 -35 0 -33 -2 -35 -35 -35
-33 0 -35 -2 -35 -35 l0 -35 105 0 105 0 0 35 0 35 75 0 75 0 0 110 0 110 140
0 140 0 0 35 c0 34 1 35 40 35 39 0 40 -1 40 -35 l0 -35 105 0 105 0 0 -35 c0
-33 2 -35 35 -35 34 0 35 -1 35 -40 0 -39 1 -40 35 -40 34 0 35 1 35 40 l0 40
40 0 c39 0 40 1 40 35 0 33 2 35 35 35 33 0 35 2 35 35 0 33 -2 35 -35 35 -33
0 -35 2 -35 35 0 34 -1 35 -40 35 -39 0 -40 1 -40 35 0 34 1 35 40 35 39 0 40
-1 40 -35 0 -33 2 -35 35 -35 l35 0 0 70 0 70 105 0 105 0 0 40 0 40 40 0 40
0 0 -75z m-870 -40 c0 -34 1 -35 40 -35 39 0 40 1 40 35 0 33 2 35 35 35 33 0
35 -2 35 -35 0 -33 2 -35 35 -35 33 0 35 -2 35 -35 0 -33 -2 -35 -35 -35 -33
0 -35 2 -35 35 0 33 -2 35 -35 35 -33 0 -35 -2 -35 -35 0 -34 -1 -35 -40 -35
-39 0 -40 1 -40 35 0 33 -2 35 -35 35 -33 0 -35 -2 -35 -35 0 -33 -2 -35 -35
-35 -33 0 -35 2 -35 35 0 33 2 35 35 35 33 0 35 2 35 35 0 33 2 35 35 35 33 0
35 -2 35 -35z m-570 -1290 c0 -33 2 -35 35 -35 33 0 35 -2 35 -35 0 -33 -2
-35 -35 -35 -33 0 -35 -2 -35 -35 0 -33 2 -35 35 -35 34 0 35 -1 35 -40 0 -39
-1 -40 -35 -40 -33 0 -35 -2 -35 -35 0 -33 -2 -35 -35 -35 -33 0 -35 2 -35 35
0 33 -2 35 -35 35 l-35 0 0 75 0 75 -40 0 c-39 0 -40 1 -40 35 l0 35 75 0 75
0 0 35 c0 33 2 35 35 35 33 0 35 -2 35 -35z m1790 -500 l0 -105 -105 0 -105 0
0 105 0 105 105 0 105 0 0 -105z m220 70 c0 -33 -2 -35 -35 -35 l-35 0 0 -70
0 -70 35 0 c34 0 35 -1 35 -40 0 -39 -1 -40 -35 -40 l-35 0 0 -70 0 -70 -35 0
-35 0 0 70 0 70 35 0 c34 0 35 1 35 40 0 39 -1 40 -35 40 l-35 0 0 105 0 105
70 0 70 0 0 -35z m-430 -290 c0 -33 2 -35 35 -35 33 0 35 2 35 35 l0 35 70 0
70 0 0 -35 c0 -33 -2 -35 -35 -35 -33 0 -35 -2 -35 -35 0 -33 2 -35 35 -35 33
0 35 -2 35 -35 l0 -35 -105 0 -105 0 0 35 c0 33 -2 35 -35 35 l-35 0 0 70 0
70 35 0 c33 0 35 -2 35 -35z"/>
<path d="M1140 2015 l0 -75 -35 0 c-33 0 -35 -2 -35 -35 l0 -35 -70 0 -70 0 0
-35 0 -35 -75 0 -75 0 0 -110 0 -110 -35 0 c-33 0 -35 -2 -35 -35 0 -33 2 -35
35 -35 33 0 35 2 35 35 0 34 1 35 40 35 l40 0 0 75 0 75 35 0 35 0 0 -75 0
-75 35 0 35 0 0 75 0 75 70 0 70 0 0 35 c0 33 -2 35 -35 35 -33 0 -35 2 -35
35 0 33 2 35 35 35 33 0 35 2 35 35 0 34 1 35 40 35 l40 0 0 75 0 75 -40 0
-40 0 0 -75z"/>
<path d="M1720 1980 c0 -39 -1 -40 -35 -40 l-35 0 0 -70 0 -70 35 0 c33 0 35
-2 35 -35 0 -33 2 -35 35 -35 33 0 35 -2 35 -35 0 -33 2 -35 35 -35 34 0 35
-1 35 -40 0 -39 -1 -40 -35 -40 l-35 0 0 -70 0 -70 35 0 35 0 0 70 0 70 145 0
145 0 0 -35 c0 -33 -2 -35 -35 -35 l-35 0 0 -70 0 -70 70 0 70 0 0 -110 0
-110 35 0 c34 0 35 1 35 40 l0 40 75 0 75 0 0 70 0 70 -75 0 -75 0 0 105 0
105 35 0 35 0 0 110 0 110 -35 0 c-33 0 -35 2 -35 35 0 33 -2 35 -35 35 l-35
0 0 -70 0 -70 -70 0 -70 0 0 105 0 105 -35 0 -35 0 0 -105 0 -105 -40 0 -40 0
0 105 0 105 -35 0 -35 0 0 -105 0 -105 -35 0 c-33 0 -35 2 -35 35 0 33 -2 35
-35 35 -33 0 -35 2 -35 35 0 33 2 35 35 35 l35 0 0 75 0 75 -35 0 c-34 0 -35
-1 -35 -40z"/>
<path d="M280 1765 c0 -33 -2 -35 -35 -35 l-35 0 0 -75 0 -75 35 0 c33 0 35
-2 35 -35 0 -33 2 -35 35 -35 l35 0 0 -70 0 -70 40 0 40 0 0 70 0 70 -40 0
c-39 0 -40 1 -40 35 0 34 1 35 40 35 l40 0 0 40 0 40 140 0 140 0 0 35 0 35
-140 0 -140 0 0 -35 c0 -34 -1 -35 -40 -35 l-40 0 0 -40 c0 -39 -1 -40 -35
-40 l-35 0 0 75 0 75 35 0 c33 0 35 2 35 35 0 33 -2 35 -35 35 -33 0 -35 -2
-35 -35z"/>
<path d="M1290 1370 l0 -70 -35 0 c-33 0 -35 -2 -35 -35 l0 -35 -75 0 -75 0 0
-110 0 -110 35 0 c33 0 35 -2 35 -35 l0 -35 75 0 75 0 0 -35 0 -35 70 0 70 0
0 -75 0 -75 35 0 c33 0 35 -2 35 -35 0 -33 2 -35 35 -35 33 0 35 -2 35 -35 l0
-35 110 0 110 0 0 70 0 70 110 0 110 0 0 110 0 110 35 0 c33 0 35 -2 35 -35 0
-33 2 -35 35 -35 33 0 35 2 35 35 0 33 -2 35 -35 35 -33 0 -35 2 -35 35 0 33
2 35 35 35 l35 0 0 70 0 70 -35 0 -35 0 0 -70 0 -70 -35 0 c-33 0 -35 2 -35
35 0 34 -1 35 -40 35 l-40 0 0 75 0 75 110 0 110 0 0 35 0 35 -110 0 -110 0 0
-35 0 -35 -70 0 -70 0 0 -75 0 -75 35 0 c33 0 35 -2 35 -35 l0 -35 -70 0 -70
0 0 35 c0 33 -2 35 -35 35 -33 0 -35 -2 -35 -35 0 -33 2 -35 35 -35 33 0 35
-2 35 -35 l0 -35 -75 0 -75 0 0 -35 0 -35 -70 0 -70 0 0 35 c0 33 2 35 35 35
33 0 35 2 35 35 0 33 2 35 35 35 33 0 35 2 35 35 0 33 -2 35 -35 35 l-35 0 0
110 0 110 -35 0 c-33 0 -35 -2 -35 -35 0 -33 -2 -35 -35 -35 -34 0 -35 -1 -35
-40 l0 -40 -70 0 -70 0 0 40 c0 39 1 40 35 40 33 0 35 2 35 35 0 33 2 35 35
35 l35 0 0 70 0 70 -35 0 -35 0 0 -70z m720 -395 c0 -34 -1 -35 -40 -35 l-40
0 0 -75 0 -75 -35 0 -35 0 0 75 0 75 35 0 c33 0 35 2 35 35 0 34 1 35 40 35
39 0 40 -1 40 -35z m-360 -145 c0 -39 1 -40 35 -40 34 0 35 1 35 40 0 39 1 40
35 40 l35 0 0 -75 0 -75 -70 0 -70 0 0 -35 c0 -34 -1 -35 -40 -35 -39 0 -40 1
-40 35 0 33 -2 35 -35 35 -33 0 -35 2 -35 35 0 33 2 35 35 35 34 0 35 1 35 40
l0 40 40 0 40 0 0 -40z"/>
<path d="M1140 400 l0 -40 75 0 75 0 0 -35 0 -35 70 0 70 0 0 35 c0 33 -2 35
-35 35 -34 0 -35 1 -35 40 l0 40 -110 0 -110 0 0 -40z"/>
<path d="M1220 2695 c0 -33 2 -35 35 -35 33 0 35 -2 35 -35 0 -33 -2 -35 -35
-35 -33 0 -35 -2 -35 -35 0 -33 2 -35 35 -35 33 0 35 2 35 35 0 33 2 35 35 35
33 0 35 -2 35 -35 0 -33 2 -35 35 -35 33 0 35 2 35 35 0 33 -2 35 -35 35 -33
0 -35 2 -35 35 0 33 -2 35 -35 35 -33 0 -35 2 -35 35 0 33 -2 35 -35 35 -33 0
-35 -2 -35 -35z"/>
<path d="M2220 2480 l0 -250 250 0 250 0 0 250 0 250 -250 0 -250 0 0 -250z
m430 0 l0 -180 -180 0 -180 0 0 180 0 180 180 0 180 0 0 -180z"/>
<path d="M2360 2480 l0 -110 110 0 110 0 0 110 0 110 -110 0 -110 0 0 -110z"/>
<path d="M70 330 l0 -250 250 0 250 0 0 250 0 250 -250 0 -250 0 0 -250z m430
0 l0 -180 -180 0 -180 0 0 180 0 180 180 0 180 0 0 -180z"/>
<path d="M210 330 l0 -110 110 0 110 0 0 110 0 110 -110 0 -110 0 0 -110z"/>
</g>
</svg>
